<?xml version="1.0" encoding="UTF-8"?>
<svg width="75px" height="48px" viewBox="0 0 75 48" version="1.1" xmlns="http://www.w3.org/2000/svg" xmlns:xlink="http://www.w3.org/1999/xlink">
    <title>Group 5</title>
    <defs>
        <filter id="filter-1">
            <feColorMatrix in="SourceGraphic" type="matrix" values="0 0 0 0 1.000000 0 0 0 0 1.000000 0 0 0 0 1.000000 0 0 0 1.000000 0"></feColorMatrix>
        </filter>
    </defs>
    <g id="Page-1" stroke="none" stroke-width="1" fill="none" fill-rule="evenodd" stroke-linecap="round" stroke-linejoin="round">
        <g id="Group-5" transform="translate(-172.000000, -140.000000)" filter="url(#filter-1)">
            <g transform="translate(173.000000, 141.000000)">
                <path d="M68.8016,45.7248 L3.8316,45.7248 C1.7156,45.7248 -0.0004,44.0088 -0.0004,41.8918 L-0.0004,3.8318 C-0.0004,1.7158 1.7156,-0.0002 3.8316,-0.0002 L68.8016,-0.0002 C70.9176,-0.0002 72.6336,1.7158 72.6336,3.8318 L72.6336,41.8918 C72.6336,44.0088 70.9176,45.7248 68.8016,45.7248 Z" id="Stroke-1" stroke="#231F20" stroke-width="2"></path>
                <path d="M36.3368,37.1413 C36.0858,36.5883 35.8768,36.1083 35.6518,35.6383 C34.8468,33.9533 33.9718,32.3223 32.7518,30.9673 C32.4618,30.6443 32.1468,30.3413 31.8138,30.0773 C30.0248,28.6583 28.1628,29.7983 27.4638,31.4313 C27.3708,31.6473 27.2928,31.8703 27.1798,32.1643 C27.0138,31.9913 26.8748,31.8503 26.7388,31.7063 C25.7718,30.6813 24.7328,29.7793 23.4628,29.2773 C22.2748,28.8093 21.1828,29.0513 20.1888,29.8853 C19.2908,30.6393 19.0138,31.8273 19.4868,33.1883 C19.7508,33.9483 20.1448,34.6503 20.4898,35.3723 C20.5988,35.5993 20.7388,35.8053 20.8648,36.0203 C20.8408,36.0673 20.8178,36.1133 20.7948,36.1593 C19.9818,35.7933 19.1518,35.4693 18.3588,35.0563 C15.8488,33.7463 13.5908,32.0373 12.0888,29.3463 C10.4048,26.3263 9.9088,23.1273 11.4088,19.8053 C12.1918,18.0723 13.4068,16.7383 14.7668,15.5743 C17.8848,12.9043 21.4378,11.2613 25.2808,9.9083 C24.9678,10.3293 24.7378,10.6173 24.5278,10.9233 C23.8398,11.9313 23.5728,13.0743 23.7678,14.3233 C24.3228,17.8903 26.9458,19.7023 30.2168,18.9343 C31.5168,18.6283 32.2058,17.9063 32.3588,16.4313 C32.6118,13.9813 32.9038,11.5373 33.1808,9.0913 C33.1928,8.9783 33.2118,8.8673 33.2518,8.5833 C33.4938,8.9393 33.6938,9.1623 33.8178,9.4293 C34.1558,10.1583 34.4438,10.9163 34.7928,11.6383 C34.8808,11.8213 35.1138,12.0203 35.2888,12.0293 C36.0878,12.0713 36.8888,12.0483 37.7148,12.0483 C38.2418,10.9183 38.5598,9.6653 39.3268,8.7103 C39.3768,8.7183 39.4258,8.7273 39.4758,8.7353 C39.5298,9.4353 39.5568,10.1413 39.6458,10.8353 C39.9198,12.9763 40.2108,15.1163 40.5098,17.2533 C40.6168,18.0203 41.0208,18.4583 41.7018,18.6803 C43.1928,19.1633 44.6698,19.3503 46.1328,18.6193 C49.0148,17.1793 49.8158,12.9923 47.7268,10.3603 C47.6608,10.2783 47.6078,10.1823 47.6078,9.9663 C48.4908,10.3093 49.3818,10.6283 50.2548,11.0003 C53.1798,12.2463 55.9828,13.7593 58.4098,16.0283 C60.1138,17.6203 61.5668,19.4633 61.9698,22.0063 C62.4828,25.2523 61.6468,28.1373 59.7568,30.6153 C57.6728,33.3463 54.9628,34.9753 51.9768,36.0863 C51.9488,36.0973 51.9108,36.0713 51.8188,36.0463 C52.0598,35.6143 52.3078,35.2113 52.5178,34.7853 C52.7498,34.3113 52.9908,33.8343 53.1548,33.3293 C53.8328,31.2463 52.9958,29.5913 51.0688,29.1273 C50.0478,28.8813 49.1058,29.1743 48.2658,29.7673 C47.3068,30.4453 46.4198,31.2513 45.4598,32.0363 C45.4178,31.9323 45.3398,31.7423 45.2638,31.5523 C44.5248,29.6933 42.4848,28.6013 40.6518,30.2433 C39.0218,31.7043 37.9778,33.6623 36.9978,35.6763 C36.7778,36.1273 36.5828,36.5943 36.3368,37.1413 Z" id="Stroke-3" stroke="#231F20" stroke-width="2"></path>
            </g>
        </g>
    </g>
</svg>