<?xml version="1.0" encoding="utf-8"?>
<!-- Generator: Adobe Illustrator 15.1.0, SVG Export Plug-In . SVG Version: 6.00 Build 0)  -->
<!DOCTYPE svg PUBLIC "-//W3C//DTD SVG 1.1//EN" "http://www.w3.org/Graphics/SVG/1.1/DTD/svg11.dtd">
<svg version="1.1" id="Layer_1" xmlns="http://www.w3.org/2000/svg" xmlns:xlink="http://www.w3.org/1999/xlink" x="0px" y="0px"
	 width="222.423px" height="360.192px" viewBox="0 0 222.423 360.192" enable-background="new 0 0 222.423 360.192"
	 xml:space="preserve">
<g id="iFyYae.tif">
	<g>
		<g>
			<path fill-rule="evenodd" clip-rule="evenodd" fill="#7F7F7F" d="M112.329,360.192c-27.621-50.377-60.624-118.56-89-175
				c-12.484-24.831-25.583-46.951-23-83c3.839-53.594,47.961-98.462,104-102c21.271-1.343,44.463,4.513,60,13
				c37.813,20.656,72.489,75.08,52,134c-6.24,17.945-16.706,35.513-26,54C164.958,251.654,136.326,311.529,112.329,360.192z
				 M80.329,133.192c36.794,31.925,96.921-11.704,72-58c-7.427-13.796-25.522-25.345-46-23
				C66.382,56.766,50.68,107.467,80.329,133.192z"/>
		</g>
	</g>
	<g>
		<g>
			<path fill="#00A9D9" d="M112.329,360.192c-27.621-50.377-60.624-118.56-89-175c-12.484-24.831-25.583-46.951-23-83
				c3.839-53.594,47.961-98.462,104-102c21.271-1.343,44.463,4.513,60,13c37.813,20.656,72.489,75.08,52,134
				c-6.24,17.945-16.706,35.513-26,54C164.958,251.654,136.326,311.529,112.329,360.192z M80.329,133.192
				c36.794,31.925,96.921-11.704,72-58c-7.427-13.796-25.522-25.345-46-23C66.382,56.766,50.68,107.467,80.329,133.192z"/>
		</g>
	</g>
</g>
</svg>
